<?xml version="1.0" encoding="utf-8"?>
<!-- Generator: Adobe Illustrator 27.1.1, SVG Export Plug-In . SVG Version: 6.00 Build 0)  -->
<svg version="1.1" id="Layer_1" xmlns="http://www.w3.org/2000/svg" xmlns:xlink="http://www.w3.org/1999/xlink" x="0px" y="0px"
	 viewBox="0 0 512 512" style="enable-background:new 0 0 512 512;" xml:space="preserve">
<style type="text/css">
	.st0{clip-path:url(#SVGID_00000159433445377674131310000012977403998525164720_);fill:#11BED2;}
	.st1{clip-path:url(#SVGID_00000159433445377674131310000012977403998525164720_);fill:#72BF43;}
	.st2{clip-path:url(#SVGID_00000036954218388864621820000004208541856865742249_);fill:#F6B52F;}
	.st3{clip-path:url(#SVGID_00000036954218388864621820000004208541856865742249_);fill:#F1602A;}
	.st4{clip-path:url(#SVGID_00000036954218388864621820000004208541856865742249_);fill:#CF3693;}
	.st5{clip-path:url(#SVGID_00000036954218388864621820000004208541856865742249_);}
</style>
<g>
	<g>
		<defs>
			<rect id="SVGID_1_" x="0" width="512.01" height="512"/>
		</defs>
		<clipPath id="SVGID_00000045591028525342405590000017430957882609823910_">
			<use xlink:href="#SVGID_1_"  style="overflow:visible;"/>
		</clipPath>
		<path style="clip-path:url(#SVGID_00000045591028525342405590000017430957882609823910_);fill:#11BED2;" d="M255.99,17.01V0
			c-141.39,0-256,114.61-256,256s114.61,256,256,256v-17.01c-91.79-0.08-179.27-53.35-218.61-142.76
			C-15.77,231.45,39.06,90.45,159.84,37.3C191.16,23.52,223.84,17,255.99,17.01"/>
		<path style="clip-path:url(#SVGID_00000045591028525342405590000017430957882609823910_);fill:#72BF43;" d="M166.64,52.94
			l-6.87-15.61C38.99,90.48-15.84,231.48,37.3,352.26c53.15,120.78,194.15,175.62,314.93,122.47l-6.87-15.61
			c-62.46,27.42-136.69,25.78-200.3-10.95C38.95,386.91,2.59,251.21,63.86,145.1C88.4,102.58,124.9,71.27,166.64,52.94"/>
	</g>
	<g>
		<defs>
			<rect id="SVGID_00000007425872900035531920000000788927145897923239_" x="-0.01" width="512.02" height="512"/>
		</defs>
		<clipPath id="SVGID_00000054255203465441463700000010712507479163417481_">
			<use xlink:href="#SVGID_00000007425872900035531920000000788927145897923239_"  style="overflow:visible;"/>
		</clipPath>
		<path style="clip-path:url(#SVGID_00000054255203465441463700000010712507479163417481_);fill:#F6B52F;" d="M358.44,78.55
			l8.49-14.7C260.8,2.59,125.11,38.95,63.84,145.06C2.58,251.18,38.94,386.88,145.06,448.14l8.51-14.74
			c-16.63-9.62-32.15-21.78-46.05-36.43c-77.86-82.05-74.47-211.68,7.58-289.53C182.46,43.51,281.91,34.36,358.44,78.55"/>
		<path style="clip-path:url(#SVGID_00000054255203465441463700000010712507479163417481_);fill:#F1602A;" d="M126.75,119.81
			l-11.69-12.32c-82.05,77.86-85.48,207.44-7.62,289.49s207.49,85.44,289.53,7.58l-11.73-12.37
			c-43.75,41.44-106.62,61.12-169.88,47.09C114.13,416.84,50.26,316.59,72.7,215.37C81.12,177.39,100.49,144.68,126.75,119.81"/>
		<path style="clip-path:url(#SVGID_00000054255203465441463700000010712507479163417481_);fill:#CF3693;" d="M292.93,89.39
			l3.7-16.67C195.4,50.27,95.15,114.14,72.71,215.37c-22.44,101.22,41.43,201.48,142.65,223.92l3.69-16.66l-0.03,0
			c-92.02-20.4-150.08-111.54-129.69-203.56c20.4-92.02,111.54-150.08,203.56-129.68L292.93,89.39"/>
		<path style="clip-path:url(#SVGID_00000054255203465441463700000010712507479163417481_);" d="M448.61,287.08l9.34-10.94
			c6.88,6.39,14.13,10.32,22.12,10.32c10.32,0,17.08-5.9,17.08-14.87v-0.24c0-8.72-7.37-14.25-17.82-14.25
			c-6.14,0-11.43,1.72-15.85,3.81l-9.09-6.02l2.46-42.14h51.36v13.4h-38.34l-1.35,20.15c4.06-1.48,7.87-2.46,13.64-2.46
			c16.71,0,29.86,8.85,29.86,27.04v0.24c0,17.57-12.78,29.12-31.82,29.12C467.04,300.22,456.72,294.94,448.61,287.08"/>
		<path style="clip-path:url(#SVGID_00000054255203465441463700000010712507479163417481_);" d="M381.35,281.99h43.22
			c0.92-6.02,1.52-12.14,1.8-18.35l-45.02,0.22V281.99z"/>
		<path style="clip-path:url(#SVGID_00000054255203465441463700000010712507479163417481_);" d="M381.35,229.46v17.51l44.94-0.22
			c-0.31-5.85-0.92-11.62-1.8-17.29H381.35z"/>
		<path style="clip-path:url(#SVGID_00000054255203465441463700000010712507479163417481_);" d="M362.48,298.88v-86.31h58.47
			c-19.21-73.22-85.84-127.24-165.09-127.24C161.61,85.33,85.2,161.74,85.2,256s76.41,170.67,170.67,170.67
			c79.45,0,146.22-54.29,165.23-127.79L362.48,298.88z M254.06,226.99l-47.47,55.24h47.47v16.65h-71.89v-14.43l47.47-55.24h-45.99
			v-16.64h70.4L254.06,226.99z M339.63,229.46h-46.85v17.51h46.85v16.89h-46.85v18.13h46.85v16.89h-65.72v-86.31h65.72V229.46z"/>
	</g>
</g>
</svg>
