<?xml version="1.0" standalone="no"?>
<!DOCTYPE svg PUBLIC "-//W3C//DTD SVG 20010904//EN"
 "http://www.w3.org/TR/2001/REC-SVG-20010904/DTD/svg10.dtd">
<svg version="1.0" xmlns="http://www.w3.org/2000/svg"
 width="300.000000pt" height="300.000000pt" viewBox="0 0 300.000000 300.000000"
 preserveAspectRatio="xMidYMid meet">

<g transform="translate(0.000000,300.000000) scale(0.100000,-0.100000)"
fill="#000000" stroke="none">
<path d="M0 1500 l0 -1500 1500 0 1500 0 0 1500 0 1500 -1500 0 -1500 0 0
-1500z m1500 1291 l0 -38 -82 -7 c-46 -4 -117 -14 -158 -22 -82 -15 -260 -73
-260 -84 0 -10 29 -80 33 -80 2 0 43 13 92 30 131 44 233 61 380 61 136 0 246
-16 356 -52 84 -27 219 -90 219 -102 0 -18 -35 -67 -45 -63 -133 60 -190 81
-272 103 -86 23 -117 26 -258 26 -140 0 -172 -3 -256 -26 -133 -35 -232 -78
-336 -147 -111 -73 -253 -219 -322 -332 -222 -361 -211 -811 29 -1169 56 -83
198 -223 277 -274 35 -22 63 -44 63 -49 0 -5 -9 -23 -20 -41 l-20 -33 22 -14
c36 -23 156 -74 228 -96 108 -33 209 -46 340 -46 142 0 259 20 383 64 45 16
82 28 82 27 0 -1 8 -18 17 -38 l16 -36 -91 -32 c-116 -39 -216 -60 -329 -68
l-88 -6 0 -45 0 -45 -80 7 c-301 25 -543 121 -773 306 -227 182 -394 461 -458
763 -29 134 -31 370 -5 501 55 280 174 505 370 702 222 221 467 339 806 388
14 2 51 4 83 5 l57 1 0 -39z m275 -445 c150 -50 250 -111 361 -221 114 -113
197 -251 230 -380 l6 -25 -156 0 -156 0 2 -222 3 -223 153 -3 c112 -2 152 -6
152 -15 0 -6 -15 -48 -33 -92 -152 -373 -537 -602 -934 -555 -200 24 -375 106
-520 243 -450 428 -336 1166 222 1444 141 70 253 94 425 89 123 -4 145 -7 245
-40z m1055 -661 l0 -35 -100 0 -100 0 0 -27 c0 -16 -3 -37 -6 -49 -5 -20 -3
-21 45 -16 68 6 136 -19 162 -62 42 -69 15 -166 -60 -210 -45 -26 -134 -25
-187 2 -62 32 -69 45 -41 77 l23 27 38 -26 c74 -50 166 -23 166 49 0 61 -72
93 -146 65 -20 -8 -32 -7 -50 5 -27 17 -29 43 -17 168 l6 67 133 0 134 0 0
-35z m-436 -71 c3 -9 6 -26 6 -38 0 -22 -4 -23 -112 -29 -61 -3 -115 -4 -120
-1 -4 3 -8 23 -8 45 l0 39 114 0 c95 0 115 -3 120 -16z m6 -191 c0 -62 -4 -64
-126 -61 l-109 3 -3 42 c-4 49 -3 49 146 52 l92 1 0 -37z"/>
<path d="M1120 1680 l0 -40 120 0 c66 0 120 -2 120 -6 0 -3 -54 -67 -120 -143
-112 -129 -120 -141 -120 -180 l0 -41 187 2 186 3 0 40 0 40 -121 5 -121 5
122 141 c108 125 122 146 122 178 l0 36 -187 0 -188 0 0 -40z"/>
<path d="M1600 1495 l0 -225 173 2 172 3 3 43 3 42 -125 0 -126 0 0 45 0 44
123 3 122 3 3 43 3 42 -125 0 -126 0 0 45 0 44 123 3 122 3 3 43 3 42 -175 0
-176 0 0 -225z"/>
</g>
</svg>
